C:\Users\israe\Dropbox\PhDWork\Simulation\code\PassiveMoments\Data/trialHip_ankle0knee0_ankle0knee-15_ankle0knee-60.mot
nRows=129
nColumns=4

name C:\Users\israe\Dropbox\PhDWork\Simulation\code\PassiveMoments\Data/trialHip_ankle0knee0_ankle0knee-15_ankle0knee-60.mot
datacolumns 4
datarows 129
range 0.0000000000 1.2800000000
endheader
time	ankle_angle_r	knee_angle_r	hip_flexion_r
        0.0000000000	       -0.0000000000	       -0.0000000000	       30.0000000000	
        0.0100000000	       -0.0000000000	       -0.0000000000	       29.5151515152	
        0.0200000000	       -0.0000000000	       -0.0000000000	       29.0303030303	
        0.0300000000	       -0.0000000000	       -0.0000000000	       28.5454545455	
        0.0400000000	       -0.0000000000	       -0.0000000000	       28.0606060606	
        0.0500000000	       -0.0000000000	       -0.0000000000	       27.5757575758	
        0.0600000000	       -0.0000000000	       -0.0000000000	       27.0909090909	
        0.0700000000	       -0.0000000000	       -0.0000000000	       26.6060606061	
        0.0800000000	       -0.0000000000	       -0.0000000000	       26.1212121212	
        0.0900000000	       -0.0000000000	       -0.0000000000	       25.6363636364	
        0.1000000000	       -0.0000000000	       -0.0000000000	       25.1515151515	
        0.1100000000	       -0.0000000000	       -0.0000000000	       24.6666666667	
        0.1200000000	       -0.0000000000	       -0.0000000000	       24.1818181818	
        0.1300000000	       -0.0000000000	       -0.0000000000	       23.6969696970	
        0.1400000000	       -0.0000000000	       -0.0000000000	       23.2121212121	
        0.1500000000	       -0.0000000000	       -0.0000000000	       22.7272727273	
        0.1600000000	       -0.0000000000	       -0.0000000000	       22.2424242424	
        0.1700000000	       -0.0000000000	       -0.0000000000	       21.7575757576	
        0.1800000000	       -0.0000000000	       -0.0000000000	       21.2727272727	
        0.1900000000	       -0.0000000000	       -0.0000000000	       20.7878787879	
        0.2000000000	       -0.0000000000	       -0.0000000000	       20.3030303030	
        0.2100000000	       -0.0000000000	       -0.0000000000	       19.8181818182	
        0.2200000000	       -0.0000000000	       -0.0000000000	       19.3333333333	
        0.2300000000	       -0.0000000000	       -0.0000000000	       18.8484848485	
        0.2400000000	       -0.0000000000	       -0.0000000000	       18.3636363636	
        0.2500000000	       -0.0000000000	       -0.0000000000	       17.8787878788	
        0.2600000000	       -0.0000000000	       -0.0000000000	       17.3939393939	
        0.2700000000	       -0.0000000000	       -0.0000000000	       16.9090909091	
        0.2800000000	       -0.0000000000	       -0.0000000000	       16.4242424242	
        0.2900000000	       -0.0000000000	       -0.0000000000	       15.9393939394	
        0.3000000000	       -0.0000000000	       -0.0000000000	       15.4545454545	
        0.3100000000	       -0.0000000000	       -0.0000000000	       14.9696969697	
        0.3200000000	       -0.0000000000	       -0.0000000000	       14.4848484848	
        0.3300000000	       -0.0000000000	       -0.0000000000	       14.0000000000	
        0.3400000000	       -0.0000000000	       -0.0000000000	       13.5151515152	
        0.3500000000	       -0.0000000000	       -0.0000000000	       13.0303030303	
        0.3600000000	       -0.0000000000	       -0.0000000000	       12.5454545455	
        0.3700000000	       -0.0000000000	       -0.0000000000	       12.0606060606	
        0.3800000000	       -0.0000000000	       -0.0000000000	       11.5757575758	
        0.3900000000	       -0.0000000000	       -0.0000000000	       11.0909090909	
        0.4000000000	       -0.0000000000	       -0.0000000000	       10.6060606061	
        0.4100000000	       -0.0000000000	       -0.0000000000	       10.1212121212	
        0.4200000000	       -0.0000000000	       -0.0000000000	        9.6363636364	
        0.4300000000	       -0.0000000000	       -0.0000000000	        9.1515151515	
        0.4400000000	       -0.0000000000	       -0.0000000000	        8.6666666667	
        0.4500000000	       -0.0000000000	       -0.0000000000	        8.1818181818	
        0.4600000000	       -0.0000000000	       -0.0000000000	        7.6969696970	
        0.4700000000	       -0.0000000000	       -0.0000000000	        7.2121212121	
        0.4800000000	       -0.0000000000	       -0.0000000000	        6.7272727273	
        0.4900000000	       -0.0000000000	       -0.0000000000	        6.2424242424	
        0.5000000000	       -0.0000000000	       -0.0000000000	        5.7575757576	
        0.5100000000	       -0.0000000000	       -0.0000000000	        5.2727272727	
        0.5200000000	       -0.0000000000	       -0.0000000000	        4.7878787879	
        0.5300000000	       -0.0000000000	       -0.0000000000	        4.3030303030	
        0.5400000000	       -0.0000000000	       -0.0000000000	        3.8181818182	
        0.5500000000	       -0.0000000000	       -0.0000000000	        3.3333333333	
        0.5600000000	       -0.0000000000	       -0.0000000000	        2.8484848485	
        0.5700000000	       -0.0000000000	       -0.0000000000	        2.3636363636	
        0.5800000000	       -0.0000000000	       -0.0000000000	        1.8787878788	
        0.5900000000	       -0.0000000000	       -0.0000000000	        1.3939393939	
        0.6000000000	       -0.0000000000	       -0.0000000000	        0.9090909091	
        0.6100000000	       -0.0000000000	       -0.0000000000	        0.4242424242	
        0.6200000000	       -0.0000000000	       -0.0000000000	       -0.0606060606	
        0.6300000000	       -0.0000000000	       -0.0000000000	       -0.5454545455	
        0.6400000000	       -0.0000000000	       -0.0000000000	       -1.0303030303	
        0.6500000000	       -0.0000000000	       -0.0000000000	       -1.5151515152	
        0.6600000000	       -0.0000000000	       -0.0000000000	       -2.0000000000	
        0.6700000000	       -0.0000000000	       -0.0000000000	       -2.4848484848	
        0.6800000000	       -0.0000000000	       -0.0000000000	       -2.9696969697	
        0.6900000000	       -0.0000000000	       -0.0000000000	       -3.4545454545	
        0.7000000000	       -0.0000000000	       -0.0000000000	       -3.9393939394	
        0.7100000000	       -0.0000000000	       -0.0000000000	       -4.4242424242	
        0.7200000000	       -0.0000000000	       -0.0000000000	       -4.9090909091	
        0.7300000000	       -0.0000000000	       -0.0000000000	       -5.3939393939	
        0.7400000000	       -0.0000000000	       -0.0000000000	       -5.8787878788	
        0.7500000000	       -0.0000000000	       -0.0000000000	       -6.3636363636	
        0.7600000000	       -0.0000000000	       -0.0000000000	       -6.8484848485	
        0.7700000000	       -0.0000000000	       -0.0000000000	       -7.3333333333	
        0.7800000000	       -0.0000000000	       -0.0000000000	       -7.8181818182	
        0.7900000000	       -0.0000000000	       -0.0000000000	       -8.3030303030	
        0.8000000000	       -0.0000000000	       -0.0000000000	       -8.7878787879	
        0.8100000000	       -0.0000000000	       -0.0000000000	       -9.2727272727	
        0.8200000000	       -0.0000000000	       -0.0000000000	       -9.7575757576	
        0.8300000000	       -0.0000000000	       -0.0000000000	      -10.2424242424	
        0.8400000000	       -0.0000000000	       -0.0000000000	      -10.7272727273	
        0.8500000000	       -0.0000000000	       -0.0000000000	      -11.2121212121	
        0.8600000000	       -0.0000000000	       -0.0000000000	      -11.6969696970	
        0.8700000000	       -0.0000000000	       -0.0000000000	      -12.1818181818	
        0.8800000000	       -0.0000000000	       -0.0000000000	      -12.6666666667	
        0.8900000000	       -0.0000000000	       -0.0000000000	      -13.1515151515	
        0.9000000000	       -0.0000000000	       -0.0000000000	      -13.6363636364	
        0.9100000000	       -0.0000000000	       -0.0000000000	      -14.1212121212	
        0.9200000000	       -0.0000000000	       -0.0000000000	      -14.6060606061	
        0.9300000000	       -0.0000000000	       -0.0000000000	      -15.0909090909	
        0.9400000000	       -0.0000000000	       -0.0000000000	      -15.5757575758	
        0.9500000000	       -0.0000000000	       -0.0000000000	      -16.0606060606	
        0.9600000000	       -0.0000000000	       -0.0000000000	      -16.5454545455	
        0.9700000000	       -0.0000000000	       -0.0000000000	      -17.0303030303	
        0.9800000000	       -0.0000000000	       -0.0000000000	      -17.5151515152	
        0.9900000000	       -0.0000000000	       -0.0000000000	      -18.0000000000	
        1.0000000000	       -0.0000000000	      -15.0000000000	       29.0000000000	
        1.0100000000	       -0.0000000000	      -15.0000000000	       28.5151515152	
        1.0200000000	       -0.0000000000	      -15.0000000000	       28.0303030303	
        1.0300000000	       -0.0000000000	      -15.0000000000	       27.5454545455	
        1.0400000000	       -0.0000000000	      -15.0000000000	       27.0606060606	
        1.0500000000	       -0.0000000000	      -15.0000000000	       26.5757575758	
        1.0600000000	       -0.0000000000	      -15.0000000000	       26.0909090909	
        1.0700000000	       -0.0000000000	      -15.0000000000	       25.6060606061	
        1.0800000000	       -0.0000000000	      -15.0000000000	       25.1212121212	
        1.0900000000	       -0.0000000000	      -15.0000000000	       24.6363636364	
        1.1000000000	       -0.0000000000	      -15.0000000000	       24.1515151515	
        1.1100000000	       -0.0000000000	      -15.0000000000	       23.6666666667	
        1.1200000000	       -0.0000000000	      -15.0000000000	       23.1818181818	
        1.1300000000	       -0.0000000000	      -15.0000000000	       22.6969696970	
        1.1400000000	       -0.0000000000	      -15.0000000000	       22.2121212121	
        1.1500000000	       -0.0000000000	      -15.0000000000	       21.7272727273	
        1.1600000000	       -0.0000000000	      -15.0000000000	       21.2424242424	
        1.1700000000	       -0.0000000000	      -15.0000000000	       20.7575757576	
        1.1800000000	       -0.0000000000	      -15.0000000000	       20.2727272727	
        1.1900000000	       -0.0000000000	      -15.0000000000	       19.7878787879	
        1.2000000000	       -0.0000000000	      -15.0000000000	       19.3030303030	
        1.2100000000	       -0.0000000000	      -15.0000000000	       18.8181818182	
        1.2200000000	       -0.0000000000	      -15.0000000000	       18.3333333333	
        1.2300000000	       -0.0000000000	      -15.0000000000	       17.8484848485	
        1.2400000000	       -0.0000000000	      -15.0000000000	       17.3636363636	
        1.2500000000	       -0.0000000000	      -15.0000000000	       16.8787878788	
        1.2600000000	       -0.0000000000	      -15.0000000000	       16.3939393939	
        1.2700000000	       -0.0000000000	      -15.0000000000	       15.9090909091	
        1.2800000000	       -0.0000000000	      -15.0000000000	       15.4242424242	
